<?xml version="1.0" encoding="utf-8"?>
<!-- Generator: Adobe Illustrator 22.1.0, SVG Export Plug-In . SVG Version: 6.00 Build 0)  -->
<svg version="1.1" id="Layer_1" xmlns="http://www.w3.org/2000/svg" xmlns:xlink="http://www.w3.org/1999/xlink" x="0px" y="0px"
	 viewBox="0 0 502 122" enable-background="new 0 0 502 122" xml:space="preserve">
<g>
	<g>
		<g>
			<g>
				<path fill="#FFFFFF" d="M8.6,63.2c2.1-2.2,3.3-4.6,3.5-7.3c0-0.3,0.1-0.7,0.1-1c0-0.7-0.1-1.3-0.2-1.9c-0.2-0.8-0.4-1.5-0.8-2
					c1.5,0.4,2.9,1.1,4.1,2.2c1.4,1.2,2.3,2.4,2.7,3.8c4-1.7,8-2.6,12.1-2.6c6.2,0,11.6,2.2,16,6.6c4.4,4.4,6.7,9.8,6.7,16
					c0,2.4-0.7,4.5-2.1,6.3c-1.3,1.6-3.1,2.8-5.1,3.5c-1.1,0.3-2.2,0.5-3.3,0.5c-0.9,0-1.8-0.1-2.8-0.4c-2.1-0.6-3.7-1.8-5-3.6
					c1.7,0,3.2-0.6,4.4-1.8c1.2-1.2,1.8-2.7,1.8-4.4c0-2.9-1-5.4-3.1-7.5c-2.1-2-4.5-3.1-7.5-3.1c-4.6,0-8.5,1.6-11.7,4.9
					c-3.2,3.2-4.8,7.1-4.8,11.7c0,7.1,2.5,13.1,7.5,18.1c5,5,11.1,7.5,18.1,7.5c7.1,0,13.2-2.5,18.1-7.5c5-5,7.5-11.1,7.5-18.1
					c0-8.6-2.8-15.5-8.3-20.8c-3.4-3.2-9.7-7-18.9-11.4l-4.1-2.1c-1.5-0.8-2.9-1.4-4.1-2.1c-2.9-1.6-5.3-3.3-7.2-4.9
					c-4.7-4.1-7.1-8.9-7.1-14.6c0-6.3,2.2-11.6,6.6-16c4.4-4.4,9.8-6.7,16-6.7C43.8,4.4,48.6,6,52.3,9c3.2,2.7,5.1,6.1,5.5,10.2
					c0.1,0.7,0.1,1.3,0.1,2c0,3.1-0.9,5.8-2.6,8.2c-2.3,3.1-5.5,4.6-9.5,4.6c1.7-2,2.6-4.2,2.6-6.8c0-2.9-1-5.4-3.1-7.5
					c-2.1-2.1-4.5-3.1-7.5-3.1c-2.8,0-5,1-6.7,3.1c-1.5,1.9-2.3,4.4-2.3,7.5c0,2.3,1.1,4.5,3.5,6.4c2,1.7,5.6,3.8,10.7,6.3l1.4,0.7
					l1.4,0.6c1.1,0.5,2.1,1,2.9,1.4c2.2,1.1,4.2,2.1,6,3.1c4.6,2.6,8.5,5.3,11.5,8.2c8.3,7.7,12.4,17.3,12.4,29.1
					c0,10.3-4,19.2-11.9,26.7c-7.8,7.4-16.9,11-27.4,11c-10.5,0-19.6-3.7-27.4-11C3.9,102.1,0,93.3,0,83C0,75.9,2.9,69.3,8.6,63.2z"
					/>
			</g>
			<g>
				<path fill="#FFFFFF" d="M16.6,83c0,4.4,1.1,8.6,3.2,12.4c2.1,3.7,4.9,6.8,8.5,9.1c-4-2.1-7.2-5-9.6-8.7
					c-2.4-3.9-3.6-8.2-3.6-12.8c0-3,0.8-5.7,2.4-8.2c1.5-2.4,3.6-4.2,6.3-5.5C19,72.6,16.6,77.2,16.6,83z M18.9,54.9
					c-0.8-1.3-1.8-2.5-3.2-3.5c1.7,0.8,3.1,1.8,4.1,3.1L18.9,54.9z M31.7,27.1c0,3.1,2.2,5.9,6.5,8.6c-2.9-1.6-5-3.1-6.3-4.4
					c-1.2-1.3-1.8-2.7-1.8-4.2c0-2,0.4-3.7,1.1-5.2c0.9-1.7,2.2-2.9,3.9-3.5C32.9,20.4,31.7,23.3,31.7,27.1z M43.5,56.7
					c3.7,1.9,6.7,4.7,8.9,8.2c2.3,3.6,3.5,7.6,3.5,11.9c0,4.4-2.1,7.5-6.2,9.3c3.1-2.3,4.6-5.4,4.6-9.3c0-4.1-1-8-3-11.6
					C49.4,61.8,46.8,58.9,43.5,56.7z M59.4,21c0-6.1-2.6-10.8-7.8-14.3c2.9,1.4,5.2,3.4,6.8,6c1.5,2.3,2.3,4.9,2.4,7.7v0.5
					c0,2.5-0.6,4.8-1.7,6.9c-1.3,2.3-3,4-5.3,5.1C57.6,30.1,59.4,26.2,59.4,21z M56.5,45c7.5,4.2,13.2,8.8,17.1,13.7
					c5.3,6.7,7.9,14.8,7.9,24.2c0,6.8-1.9,13.2-5.6,19.2c-3.6,5.7-8.5,10.2-14.6,13.6c5.7-3.6,10.2-8.3,13.6-14
					C78.3,95.8,80,89.6,80,83c0-9.2-2.4-17.1-7.3-23.9C68.9,53.9,63.5,49.2,56.5,45z"/>
			</g>
			<g>
				<path fill="#FFFFFF" d="M3,83c0,9.7,3.7,18.1,11,25.2c7.3,7.1,15.9,10.8,26,11h-0.8c-10.2,0-19.1-3.6-26.5-10.7
					C5.2,101.2,1.5,92.7,1.5,83c0-3.7,0.9-7.4,2.7-10.9c1.4-2.7,3.2-5.3,5.5-7.8c2.6-2.8,4-5.9,4-9.4c0-0.4,0-0.9-0.1-1.3
					c0.5,0.4,1.1,0.9,1.6,1.3c0,3.5-1.4,6.6-4,9.4c-2.3,2.5-4.1,5.1-5.5,7.8C3.9,75.6,3,79.2,3,83z M39.9,49.3l5.1,2.5
					c1.9,1,3.6,1.9,5,2.7c3.7,2.1,6.7,4.3,9,6.5c5.9,5.6,8.8,13,8.8,21.9c0,7.5-2.7,13.9-8,19.2c-5.3,5.3-11.7,8-19.2,8l-0.8-0.1
					c7.4-0.2,13.6-2.9,18.7-8.2c5.1-5.3,7.7-11.6,7.7-19c0-9-2.9-16.3-8.8-21.9c-2.3-2.3-5.4-4.4-9-6.5c-1.5-0.8-3.1-1.7-5-2.7
					l-5.2-2.5c-7.3-3.5-12.3-6.4-15-8.7c-4.4-3.8-6.7-8.3-6.7-13.5c0-5.9,2-10.8,6.2-14.9c4.1-4.1,9.1-6.2,14.9-6.2h0.9
					c-5.7,0.2-10.5,2.3-14.5,6.4c-4,4.1-6,9-6,14.7c0,5.2,2.2,9.7,6.7,13.5C27.5,42.9,32.5,45.8,39.9,49.3z M20.2,58.2
					c-0.2,0.1-0.4,0.1-0.6,0.1c-0.2,0-0.4,0-0.6-0.1l-0.1-0.1c3.7-1.6,7.5-2.4,11.4-2.4h0.5C27.1,55.9,23.6,56.7,20.2,58.2z
					 M43.8,76.9c0,1.6-0.5,3-1.4,4.3c-0.9,1.3-2,2.2-3.5,2.8c0.7,0.5,1.4,0.9,2.1,1.1c0.6,0.2,1.3,0.3,2,0.4l-0.8,0.1
					c-0.8,0-1.5-0.1-2.3-0.3c-1-0.3-1.8-0.7-2.6-1.3c1.4-0.6,2.6-1.5,3.5-2.8c0.9-1.3,1.3-2.7,1.3-4.3c0-3.2-1.1-5.9-3.3-8.2
					c-2.2-2.3-4.9-3.6-8-3.8l0.8-0.1c3.3,0,6.2,1.2,8.5,3.5C42.6,70.7,43.8,73.6,43.8,76.9z M49.8,27.1c0-3.2-1.1-6-3.3-8.3
					c-2.2-2.3-4.9-3.6-8-3.8l0.8-0.1c3.3,0,6.2,1.2,8.5,3.6c2.4,2.3,3.6,5.2,3.6,8.5c0,1.5-0.3,2.9-0.9,4.3
					c-0.6,0.3-1.2,0.5-1.8,0.7C49.5,30.5,49.8,28.9,49.8,27.1z"/>
			</g>
		</g>
		<g>
			<g>
				<path fill="#FFFFFF" d="M121,19.5c-0.7,1.6-2.1,3.4-4,5.3c1.8,0.8,2.7,2.3,2.7,4.3v7.8c-0.9-2.1-2.7-3.7-5.3-4.7
					c-2-0.7-4.3-1.1-6.9-1.1h-1.4c-0.7,0-1.4,0.3-1.9,0.8c-0.5,0.6-0.8,1.2-0.8,2.1V79c0,2.8,0.3,5.3,1,7.4c0.9,2.8,2.3,4.7,4.4,5.7
					h-7.2c-1.9,0-3.3-1-4.1-2.9c-1,1.9-2.4,2.9-4,2.9H86c2-1,3.4-2.9,4.4-5.7c0.7-2.1,1.1-4.6,1.1-7.4L91.5,34
					c0-0.8-0.3-1.5-0.8-2.1c-0.5-0.6-1.2-0.8-1.9-0.8h-1.5c-2.6,0-4.9,0.4-6.8,1.1c-2.6,1-4.4,2.6-5.3,4.7v-7.8
					c0-2.1,0.9-3.5,2.7-4.3c-1.9-1.9-3.3-3.7-4-5.3h19.6c1.6,0,3,1,4,2.9c0.8-1.9,2.1-2.9,4.1-2.9H121z"/>
			</g>
			<g>
				<path fill="#FFFFFF" d="M106.2,80.1c0,2.3,0.2,4.5,0.7,6.4c0.6,2.5,1.6,4.3,3,5.5c-0.3-0.1-0.4-0.1-0.5-0.2
					c-1.8-0.9-3.1-2.8-3.9-5.6c-0.3-1-0.5-2.1-0.6-3.4c-0.1-0.9-0.1-1.8-0.1-2.8V35.2c0-0.4,0.1-0.7,0.4-1c0.3-0.3,0.6-0.4,1-0.4
					h0.3c-0.2,0.4-0.3,0.9-0.3,1.4V80.1z M119.7,26c1.8,0.8,2.7,2.3,2.7,4.3v7.8c-0.3-0.8-0.7-1.5-1.3-2.1v-5.7c0-1-0.2-1.9-0.6-2.7
					c-0.3-0.7-0.7-1.3-1.3-1.8c1.4-1.5,2.4-3,3.1-4.5c0.1-0.2,0.1-0.4,0.1-0.7h1.3C123,22.3,121.6,24.1,119.7,26z"/>
			</g>
			<g>
				<path fill="#FFFFFF" d="M77.7,22.4c0.6,0.8,1.5,1.8,2.5,2.8c0.3,0.3,0.4,0.6,0.4,1.1v0.2c-0.1,0.5-0.3,0.9-0.8,1.1h-0.1
					l-0.1,0.1c-0.1,0-0.1,0.1-0.2,0.1c-0.2,0.2-0.4,0.3-0.6,0.5c-0.6,0.6-1,1.4-1,2.3v2.8c-0.5,0.3-0.9,0.6-1.3,0.9v-3.7
					c0-0.9,0.3-1.6,1-2.3c0.2-0.2,0.4-0.4,0.6-0.5c0.1,0,0.1-0.1,0.2-0.1l0.1-0.1h0.1c0.4-0.2,0.7-0.6,0.8-1.1v-0.2
					c0-0.4-0.1-0.8-0.4-1.1c-1-1-1.8-1.9-2.5-2.8H77.7z M90.2,31.1c1.1,0,2.1,0.4,2.9,1.3c0.8,0.8,1.2,1.9,1.2,3.1l-0.1,44.9
					c0,0.8,0,1.6-0.1,2.4c-0.1,1-0.2,2.1-0.4,3c-0.5,2.5-1.4,4.6-2.5,6.2h-1.3c1.2-1.6,2-3.7,2.5-6.2c0.2-1,0.3-2,0.4-3
					c0.1-0.8,0.1-1.6,0.1-2.4l0.1-44.9c0-1.2-0.4-2.2-1.2-3.1c-0.8-0.8-1.7-1.3-2.9-1.3H90.2z M98.9,24.5v-0.1
					c0.1-0.1,0.1-0.2,0.2-0.2c0.1-0.2,0.3-0.5,0.5-0.7c0.6-0.7,1.3-1,2.1-1h1.3c-0.8,0-1.5,0.3-2.1,1c-0.2,0.2-0.4,0.4-0.5,0.7
					c0,0.1-0.1,0.2-0.1,0.2l-0.1,0.1v0.1c-0.2,0.5-0.6,0.8-1.2,0.8H99c-0.3,0-0.5-0.1-0.7-0.2C98.5,25,98.7,24.7,98.9,24.5z
					 M100.2,90v0.1c0.1,0.1,0.1,0.2,0.2,0.2c0.1,0.2,0.3,0.5,0.5,0.7c0.6,0.6,1.3,1,2.1,1h-1.3c-0.8,0-1.5-0.3-2.1-1
					c-0.2-0.2-0.4-0.5-0.5-0.7c-0.1-0.1-0.1-0.2-0.2-0.2v-0.1L98.8,90c-0.1-0.3-0.3-0.5-0.6-0.7c0.2-0.1,0.5-0.2,0.7-0.2H99
					C99.5,89.2,99.9,89.5,100.2,90z M108.9,31.1c1.6,0,3.1,0.1,4.5,0.4c1.9,0.4,3.5,1,4.9,1.8v0.9c-1.4-1.2-3.2-2-5.5-2.6
					c-1.6-0.4-3.4-0.5-5.3-0.5H108.9z"/>
			</g>
		</g>
		<g>
			<g>
				<path fill="#FFFFFF" d="M499.3,19.5c-0.7,1.6-2.1,3.4-4,5.3c1.8,0.8,2.7,2.3,2.7,4.3v7.8c-0.9-2.1-2.7-3.7-5.3-4.7
					c-2-0.7-4.3-1.1-6.9-1.1h-1.4c-0.7,0-1.4,0.3-1.9,0.8c-0.5,0.6-0.8,1.2-0.8,2.1V79c0,2.8,0.3,5.3,1,7.4c0.9,2.8,2.3,4.7,4.4,5.7
					h-7.2c-1.9,0-3.3-1-4.1-2.9c-1,1.9-2.4,2.9-4,2.9h-7.5c2-1,3.4-2.9,4.4-5.7c0.7-2.1,1.1-4.6,1.1-7.4l0.1-44.9
					c0-0.8-0.3-1.5-0.8-2.1c-0.5-0.6-1.2-0.8-1.9-0.8h-1.5c-2.6,0-4.9,0.4-6.8,1.1c-2.6,1-4.4,2.6-5.3,4.7v-7.8
					c0-2.1,0.9-3.5,2.7-4.3c-1.9-1.9-3.3-3.7-4-5.3h19.6c1.6,0,3,1,4,2.9c0.8-1.9,2.1-2.9,4.1-2.9H499.3z"/>
			</g>
			<g>
				<path fill="#FFFFFF" d="M484.4,80.1c0,2.3,0.2,4.5,0.7,6.4c0.6,2.5,1.6,4.3,3,5.5c-0.3-0.1-0.4-0.1-0.5-0.2
					c-1.8-0.9-3.1-2.8-3.9-5.6c-0.3-1-0.5-2.1-0.6-3.4c-0.1-0.9-0.1-1.8-0.1-2.8V35.2c0-0.4,0.1-0.7,0.4-1c0.3-0.3,0.6-0.4,1-0.4
					h0.3c-0.2,0.4-0.3,0.9-0.3,1.4V80.1z M498,26c1.8,0.8,2.7,2.3,2.7,4.3v7.8c-0.3-0.8-0.7-1.5-1.3-2.1v-5.7c0-1-0.2-1.9-0.6-2.7
					c-0.3-0.7-0.7-1.3-1.3-1.8c1.4-1.5,2.4-3,3.1-4.5c0.1-0.2,0.1-0.4,0.1-0.7h1.3C501.2,22.3,499.9,24.1,498,26z"/>
			</g>
			<g>
				<path fill="#FFFFFF" d="M456,22.4c0.6,0.8,1.5,1.8,2.5,2.8c0.3,0.3,0.4,0.6,0.4,1.1v0.2c-0.1,0.5-0.3,0.9-0.8,1.1h-0.1l-0.1,0.1
					c-0.1,0-0.1,0.1-0.2,0.1c-0.2,0.2-0.4,0.3-0.6,0.5c-0.6,0.6-1,1.4-1,2.3v2.8c-0.5,0.3-0.9,0.6-1.3,0.9v-3.7c0-0.9,0.3-1.6,1-2.3
					c0.2-0.2,0.4-0.4,0.6-0.5c0.1,0,0.1-0.1,0.2-0.1l0.1-0.1h0.1c0.4-0.2,0.7-0.6,0.8-1.1v-0.2c0-0.4-0.1-0.8-0.4-1.1
					c-1-1-1.8-1.9-2.5-2.8H456z M468.4,31.1c1.1,0,2.1,0.4,2.9,1.3c0.8,0.8,1.2,1.9,1.2,3.1l-0.1,44.9c0,0.8,0,1.6-0.1,2.4
					c-0.1,1-0.2,2.1-0.4,3c-0.5,2.5-1.4,4.6-2.5,6.2h-1.3c1.2-1.6,2-3.7,2.5-6.2c0.2-1,0.3-2,0.4-3c0.1-0.8,0.1-1.6,0.1-2.4
					l0.1-44.9c0-1.2-0.4-2.2-1.2-3.1c-0.8-0.8-1.7-1.3-2.9-1.3H468.4z M477.1,24.5v-0.1c0.1-0.1,0.1-0.2,0.2-0.2
					c0.1-0.2,0.3-0.5,0.5-0.7c0.6-0.7,1.3-1,2.1-1h1.3c-0.8,0-1.5,0.3-2.1,1c-0.2,0.2-0.4,0.4-0.5,0.7c0,0.1-0.1,0.2-0.1,0.2
					l-0.1,0.1v0.1c-0.2,0.5-0.6,0.8-1.2,0.8h-0.1c-0.3,0-0.5-0.1-0.7-0.2C476.8,25,477,24.7,477.1,24.5z M478.5,90v0.1
					c0.1,0.1,0.1,0.2,0.2,0.2c0.1,0.2,0.3,0.5,0.5,0.7c0.6,0.6,1.3,1,2.1,1h-1.3c-0.8,0-1.5-0.3-2.1-1c-0.2-0.2-0.4-0.5-0.5-0.7
					c-0.1-0.1-0.1-0.2-0.2-0.2v-0.1l-0.1-0.1c-0.1-0.3-0.3-0.5-0.6-0.7c0.2-0.1,0.5-0.2,0.7-0.2h0.1C477.8,89.2,478.2,89.5,478.5,90
					z M487.2,31.1c1.6,0,3.1,0.1,4.5,0.4c1.9,0.4,3.5,1,4.9,1.8v0.9c-1.4-1.2-3.2-2-5.5-2.6c-1.6-0.4-3.4-0.5-5.3-0.5H487.2z"/>
			</g>
		</g>
		<g>
			<g>
				<path fill="#FFFFFF" d="M164.5,82.4c0,2.1-0.9,3.6-2.7,4.4c1.9,1.9,3.2,3.6,4,5.2h-24.8c-1.9,0-3.2-1-4-2.9
					c-1.1,1.9-2.4,2.9-4,2.9h-7.6c2-1,3.4-2.9,4.4-5.7c0.7-2.1,1-4.5,1-7.4V32.6c0-2.8-0.3-5.3-1-7.4c-0.9-2.8-2.4-4.7-4.4-5.7h7.6
					c1.6,0,2.9,1,4,2.9c0.8-1.9,2.1-2.9,4-2.9h24.8c-0.7,1.6-2.1,3.4-4,5.3c1.8,0.8,2.7,2.3,2.7,4.3v7.8c-0.9-2.1-2.7-3.7-5.3-4.7
					c-1.9-0.7-4.2-1.1-6.8-1.1h-6.8c-0.7,0-1.4,0.3-1.9,0.8c-0.5,0.6-0.8,1.2-0.8,2.1v14.9c1.6-0.4,3.1-0.6,4.6-0.6
					c1.7,0,3.3,0.3,4.9,0.8c3.2,1,5.9,3.1,7.9,6.1c-1.1-0.2-2.2-0.3-3.2-0.3c-3,0-5.9,0.9-8.6,2.7c-3.7,2.5-5.6,5.7-5.6,9.8v10.2
					c0,0.8,0.3,1.5,0.8,2.1c0.5,0.6,1.2,0.9,1.9,0.9h6.8c2.6,0,4.9-0.4,6.8-1.1c2.6-1,4.4-2.5,5.3-4.7V82.4z"/>
			</g>
			<g>
				<path fill="#FFFFFF" d="M145.6,47l-1.3,0.2V34c0-0.4,0.1-0.7,0.4-1c0.3-0.3,0.6-0.4,1-0.4h0.4c-0.3,0.4-0.4,0.9-0.4,1.4V47z
					 M144.3,67.3c0-4,2.1-7.1,6.3-9.3c-3.3,2.5-5,5.5-5,9.3v10.2c0,0.5,0.1,1,0.4,1.5h-0.4c-0.4,0-0.7-0.2-1-0.5
					c-0.3-0.3-0.4-0.6-0.4-1V67.3z M165.9,29.2c0-1-0.2-1.9-0.6-2.7c-0.3-0.7-0.7-1.3-1.3-1.8c1.4-1.5,2.4-3,3.1-4.5
					c0.1-0.2,0.2-0.4,0.2-0.7h1.3c-0.7,1.6-2.1,3.4-4,5.3c1.8,0.8,2.7,2.3,2.7,4.3v7.8c-0.3-0.8-0.8-1.5-1.3-2.1V29.2z M164.5,86.8
					c1.9,1.9,3.3,3.6,4,5.2h-1.3c0-0.2-0.1-0.5-0.2-0.7c-0.7-1.4-1.7-2.9-3.1-4.5c0.6-0.5,1-1.1,1.3-1.7c0.4-0.8,0.6-1.8,0.6-2.8
					v-5.7c0.6-0.6,1-1.3,1.3-2.1v7.8C167.2,84.5,166.3,86,164.5,86.8z"/>
			</g>
			<g>
				<path fill="#FFFFFF" d="M133.8,79c0,2.1-0.2,4-0.5,5.7c-0.5,2.4-1.3,4.4-2.4,5.9h-1.3c1.1-1.5,1.9-3.5,2.4-5.9
					c0.3-1.8,0.5-3.7,0.5-5.7V32.6c0-2.1-0.2-3.9-0.5-5.7c-0.5-2.4-1.3-4.4-2.4-6h1.3c1.1,1.6,1.9,3.6,2.4,6
					c0.3,1.7,0.5,3.6,0.5,5.7V79z M138.7,23.8c-0.3,0-0.5-0.1-0.7-0.2c0.3-0.2,0.4-0.4,0.6-0.7v-0.1l0.1-0.1c0-0.1,0.1-0.2,0.1-0.2
					c0.1-0.2,0.3-0.5,0.5-0.7c0.6-0.7,1.3-1,2.1-1h1.3c-0.8,0-1.5,0.3-2.1,1c-0.2,0.2-0.4,0.4-0.5,0.7c0,0.1-0.1,0.2-0.1,0.2
					l-0.1,0.1V23C139.8,23.5,139.4,23.8,138.7,23.8L138.7,23.8z M140,88.6L140,88.6l0.1,0.1c0,0.1,0.1,0.2,0.1,0.2
					c0.1,0.2,0.3,0.5,0.5,0.7c0.6,0.6,1.3,1,2.1,1h-1.3c-0.8,0-1.5-0.3-2.1-1c-0.2-0.2-0.4-0.5-0.5-0.7c0-0.1-0.1-0.2-0.1-0.2
					l-0.1-0.1v-0.1c-0.1-0.3-0.3-0.5-0.6-0.7c0.2-0.1,0.4-0.2,0.7-0.2h0.1C139.4,87.8,139.8,88,140,88.6z M154.1,29.7
					c1.6,0,3.1,0.1,4.5,0.4c1.9,0.4,3.5,1,4.9,1.8v0.9c-1.4-1.2-3.2-2-5.5-2.6c-1.6-0.4-3.4-0.5-5.3-0.5H154.1z M163.5,79.7
					c-1.4,0.8-3,1.4-4.9,1.8c-1.4,0.3-2.9,0.4-4.5,0.4h-1.3c1.9,0,3.7-0.2,5.3-0.6c2.2-0.5,4.1-1.4,5.5-2.6V79.7z"/>
			</g>
		</g>
		<g>
			<g>
				<path fill="#FFFFFF" d="M277.9,30.8c0.6-1,0.9-2.1,0.9-3.3c0-0.7-0.1-1.4-0.3-2.1c-0.9-2.9-2.4-4.9-4.5-6h7.2
					c1.9,0,3.3,1,4.1,2.9c1-1.9,2.4-2.9,4-2.9h7.5c-2,1-3.4,2.9-4.4,5.7c-0.7,2.1-1,4.5-1,7.4v46.6c0,2.8,0.3,5.2,1,7.3
					c0.9,2.7,2.4,4.6,4.4,5.6h-7.5c-1.6,0-3-1-4-2.9c-0.8,1.9-2.1,2.9-4.1,2.9H274c2-1,3.5-2.9,4.4-5.6c0.7-2.1,1.1-4.5,1.1-7.3
					V52.6l-15.5,28.7l-15.3-28.7v26.5c0,2.8,0.3,5.2,1,7.3c0.9,2.7,2.3,4.6,4.4,5.6h-7.2c-1.9,0-3.2-1-4-2.9c-1.1,1.9-2.4,2.9-4,2.9
					h-7.6c2-1,3.4-2.9,4.4-5.6c0.7-2.1,1-4.5,1-7.3V32.6c0-2.8-0.3-5.3-1-7.4c-0.9-2.8-2.4-4.7-4.4-5.7h7.6c1.6,0,2.9,1,4,2.9
					c0.8-1.9,2.1-2.9,4-2.9h7.2c-2,1-3.5,3-4.4,6c-0.2,0.7-0.3,1.4-0.3,2.2c0,1.1,0.3,2.2,0.8,3.2c5.8,11,10.4,19.6,13.9,26
					C267.1,50.8,271.8,42.1,277.9,30.8z"/>
			</g>
			<g>
				<path fill="#FFFFFF" d="M251.2,79.1c0,2.3,0.2,4.4,0.7,6.3c0.6,2.4,1.6,4.2,3,5.5c-0.2-0.1-0.4-0.1-0.4-0.2
					c-1.8-0.9-3-2.6-3.8-5.2c-0.3-1-0.5-2.1-0.6-3.3c-0.1-1-0.2-2-0.2-3V58l1.3,2.5V79.1z M252.2,25.5c-0.2,0.7-0.3,1.4-0.3,2.2
					c0,1.1,0.3,2.2,0.8,3.2c4.4,8.4,8.3,15.7,11.7,22.1l-0.6,1c-1.2-2.2-2.6-4.7-4.1-7.7c-1.3-2.4-2.6-4.9-4.1-7.7
					c-0.6-1.1-1.1-2.2-1.7-3.3c-0.4-0.8-0.9-1.7-1.4-2.6l-1.3-2.5c-0.4-0.8-0.7-1.6-0.7-2.5c0-0.5,0.1-1.1,0.3-1.6
					c0.8-2.6,2-4.3,3.7-5.1c0.1,0,0.2-0.1,0.5-0.2C253.7,21.8,252.8,23.4,252.2,25.5z M266,80.2L278.1,58V60l-11.5,21.3L266,80.2z
					 M294.2,79.1c0,2.3,0.2,4.4,0.7,6.3c0.6,2.4,1.6,4.2,3,5.5c-0.2-0.1-0.4-0.1-0.4-0.2c-1.8-0.9-3-2.6-3.8-5.2
					c-0.3-1-0.5-2.1-0.6-3.3c-0.1-1-0.2-2-0.2-3V32.6c0-0.9,0.1-1.8,0.2-2.7c0.1-1.2,0.3-2.4,0.6-3.4c0.8-2.8,2.1-4.7,3.9-5.6
					c0.1,0,0.3-0.1,0.5-0.2c-1.4,1.3-2.4,3.2-3,5.6c-0.5,1.9-0.7,4-0.7,6.3V79.1z"/>
			</g>
			<g>
				<path fill="#FFFFFF" d="M239.1,79.1c0,2-0.2,3.9-0.5,5.6c-0.5,2.4-1.3,4.3-2.4,5.8h-1.3c1.1-1.5,1.9-3.5,2.4-5.8
					c0.3-1.7,0.5-3.6,0.5-5.6V32.6c0-2.1-0.2-4-0.5-5.7c-0.5-2.4-1.3-4.3-2.4-5.9h1.3c1.1,1.6,1.9,3.5,2.4,5.9
					c0.3,1.8,0.5,3.7,0.5,5.7V79.1z M244,23.8c-0.3,0-0.5-0.1-0.7-0.2c0.3-0.2,0.4-0.4,0.6-0.7v-0.1l0.1-0.1c0-0.1,0.1-0.2,0.1-0.2
					c0.1-0.2,0.3-0.5,0.5-0.7c0.6-0.7,1.3-1,2.1-1h1.3c-0.8,0-1.5,0.3-2.1,1c-0.2,0.2-0.4,0.4-0.5,0.7c0,0.1-0.1,0.2-0.1,0.2
					l-0.1,0.1V23C245,23.5,244.6,23.8,244,23.8L244,23.8z M243.9,88.6c-0.1-0.3-0.3-0.5-0.6-0.7c0.2-0.1,0.4-0.2,0.7-0.2h0.1
					c0.6,0,1,0.3,1.2,0.8v0.1l0.1,0.1c0,0.1,0.1,0.2,0.1,0.2c0.1,0.2,0.3,0.5,0.5,0.7c0.6,0.6,1.3,1,2.1,1h-1.3
					c-0.8,0-1.5-0.3-2.1-1c-0.2-0.2-0.4-0.5-0.5-0.7c0-0.1-0.1-0.2-0.1-0.2L243.9,88.6L243.9,88.6z M249.7,51.9
					c-0.1-0.2-0.3-0.4-0.5-0.5l0.3-0.2h0.3c0.5,0,0.9,0.2,1.2,0.7l13.5,25.3l-0.7,1.3L249.7,51.9z M266.4,57.6
					c-0.3,0.5-0.7,0.7-1.2,0.7c-0.2,0-0.4-0.1-0.7-0.2c0.2-0.1,0.4-0.3,0.5-0.5l14-26c0.7-1.3,1-2.6,1-3.9c0-0.9-0.1-1.8-0.4-2.7
					c-0.5-1.6-1.1-2.9-1.9-4h1.3c0.8,1.1,1.4,2.5,1.9,4c0.3,0.9,0.4,1.8,0.4,2.7c0,1.3-0.3,2.6-1,3.9L266.4,57.6z M281.1,51.2
					c0.7,0.2,1,0.7,1,1.4v26.5c0,2-0.2,3.9-0.6,5.6c-0.5,2.4-1.3,4.3-2.4,5.8h-1.3c1.1-1.5,1.9-3.5,2.4-5.8c0.4-1.7,0.6-3.6,0.6-5.6
					V52.6c0-0.6-0.2-1-0.7-1.3c0.2-0.1,0.5-0.2,0.7-0.2H281.1z M286.4,23.2c0.1-0.2,0.3-0.4,0.4-0.6c0.2-0.3,0.4-0.5,0.6-0.7
					c0.6-0.6,1.2-0.9,1.8-0.9h1.3c-0.6,0-1.2,0.3-1.8,0.9c-0.2,0.2-0.4,0.4-0.6,0.7c-0.2,0.2-0.3,0.4-0.4,0.6
					c-0.3,0.4-0.6,0.7-1.1,0.7h-0.1c-0.2,0-0.4-0.1-0.6-0.2C286.1,23.5,286.3,23.4,286.4,23.2z M287.7,88.4c0.1,0.2,0.3,0.3,0.4,0.5
					c0.2,0.3,0.4,0.5,0.6,0.8c0.6,0.6,1.2,0.8,1.8,0.8h-1.3c-0.6,0-1.2-0.3-1.8-0.8c-0.2-0.2-0.4-0.5-0.7-0.8
					c-0.1-0.2-0.3-0.4-0.4-0.5c-0.1-0.2-0.3-0.4-0.4-0.5c0.2-0.1,0.4-0.2,0.6-0.2h0.1C287.1,87.7,287.5,88,287.7,88.4z"/>
			</g>
		</g>
		<g>
			<g>
				<path fill="#FFFFFF" d="M194.5,19.2c1.9,0,3.3,1,4.1,2.9c1-1.9,2.4-2.9,4-2.9h9.9c-2,1-3.3,2.9-3.9,5.7
					c-0.2,1.1-0.3,2.2-0.3,3.3c0,1.3,0.1,2.6,0.4,4l10,44.1c2.1,7.3,5.1,12.6,9,15.8h-8.1c-1.6,0-2.9-1-4-2.9
					c-0.2,1.9-1.1,2.9-2.7,2.9h-9.5c2.1-1,3.4-2.9,3.9-5.8c0.2-1,0.3-2.1,0.3-3.2c0-1.4-0.2-2.8-0.5-4.2c-0.1-0.4-2.9-13.3-8.5-38.5
					L193,66.2c6.1,2.8,9.6,7.5,10.4,14.1c-3.3-2.9-7.5-4.4-12.6-4.4c-0.3,1.5-0.4,2.5-0.6,2.9c-0.3,1.4-0.5,2.8-0.5,4.2
					c0,1.1,0.1,2.2,0.3,3.2c0.6,2.8,1.9,4.7,3.9,5.8h-9.4c-1.6,0-2.5-1-2.7-2.9c-1.2,1.9-2.5,2.9-4.1,2.9h-8.1
					c3.7-3,6.6-7.8,8.6-14.4l10.1-45.3c0.3-1.5,0.4-2.8,0.4-4.2c0-1.1-0.1-2.1-0.3-3.2c-0.6-2.9-1.9-4.8-3.9-5.8H194.5z"/>
			</g>
			<g>
				<path fill="#FFFFFF" d="M192.9,78.9c-0.3,1.4-0.4,2.7-0.4,4.1c0,0.8,0.1,1.6,0.2,2.4c0.3,2.5,1.2,4.4,2.6,5.7l-0.4-0.2l-0.3-0.2
					c-1.8-0.9-2.8-2.7-3.3-5.3c-0.1-0.7-0.2-1.4-0.2-2.2c0-0.4,0-0.7,0.1-1.2c0-1,0.2-1.9,0.4-2.8c0-0.2,0-0.4,0.1-0.8
					c0.1-0.2,0.1-0.6,0.2-1l1.3,0.1C193.1,78.3,193,78.7,192.9,78.9z M198.7,46.7c0.2,0.8,0.4,1.7,0.7,2.8l-3.6,16.5l-1.2-0.7
					L198.7,46.7z M196.9,66.9c5.4,2.9,8.5,7.4,9.2,13.5c-0.4-0.4-0.9-0.7-1.5-1.2C203.7,74,201.2,69.9,196.9,66.9z M221.5,76.3
					c2,7.3,5,12.6,8.9,15.8c-1-0.6-1.6-1-1.9-1.2c-3.7-3-6.6-8-8.5-14.9l-10-44.1c-0.2-0.9-0.4-1.8-0.4-2.8c0-0.4-0.1-0.7-0.1-1
					c0-0.8,0.1-1.6,0.2-2.3c0.4-2.6,1.5-4.4,3.2-5.3l0.3-0.1l0.4-0.1c-1.4,1.3-2.2,3.1-2.6,5.6c-0.1,0.8-0.2,1.6-0.2,2.4
					c0,1.3,0.1,2.7,0.4,4L221.5,76.3z"/>
			</g>
			<g>
				<path fill="#FFFFFF" d="M181.3,77.9l-0.1,0.1c-1.6,5.3-3.7,9.5-6.3,12.5h-1.3c2.6-3,4.7-7.2,6.3-12.5l0.1-0.1l10-45.3
					c0.4-1.7,0.6-3.4,0.6-4.8c0-2.8-0.7-5.2-2-7.2h1.3c1.3,2,2,4.4,2,7.2c0,1.5-0.2,3.1-0.6,4.8L181.3,77.9z M184.9,89l0.1,0.2
					l0.1,0.2c0,0.2,0.1,0.4,0.2,0.5c0.3,0.4,0.6,0.7,1.1,0.7h-1.3c-0.5,0-0.9-0.2-1.1-0.7c-0.1-0.2-0.1-0.3-0.2-0.5l-0.1-0.2
					l-0.1-0.2c0-0.5-0.3-0.8-0.7-1.1c0.2-0.1,0.4-0.2,0.7-0.2l0.3,0.1C184.5,87.9,184.8,88.3,184.9,89z M192.6,74.5
					c3.1,0,6,0.6,8.8,1.8l0.2,0.4l0.2,0.4c-2.8-1.5-5.9-2.4-9.4-2.5l0.2-0.1H192.6z M200.2,23.5c-0.2,0-0.4-0.1-0.6-0.2
					c0.2-0.1,0.3-0.3,0.4-0.5c0.1-0.2,0.3-0.4,0.4-0.6c0.2-0.3,0.4-0.5,0.6-0.7c0.6-0.6,1.3-0.9,1.9-0.9h1.3c-0.6,0-1.2,0.3-1.9,0.9
					c-0.2,0.2-0.4,0.4-0.6,0.7c-0.2,0.2-0.3,0.4-0.4,0.6c-0.2,0.4-0.6,0.7-1.1,0.7H200.2z M210.2,78.5c0.4,1.7,0.6,3.4,0.6,4.8
					c0,2.8-0.7,5.2-2,7.2h-1.3c1.3-2,2-4.4,2-7.2c0-1.5-0.2-3.1-0.6-4.8c-0.1-0.2-1.5-6.7-4.3-19.3c-0.4-2-1-4.3-1.6-7
					c-0.2-0.8-0.4-1.9-0.7-3.2l-0.3-1.5l-0.3-1.4c-0.9-4-1.3-6-1.3-6.1c-0.1-0.4-0.3-0.7-0.7-0.9c0.2-0.2,0.4-0.2,0.7-0.2
					c0.7,0,1.2,0.4,1.3,1.2c0,0,0.4,2.1,1.3,6.1l0.3,1.4l0.3,1.5c0.3,1.3,0.5,2.4,0.7,3.2c0.6,2.6,1.1,4.9,1.6,7
					C208.7,71.9,210.2,78.3,210.2,78.5z M218.4,88.4c0.1,0.2,0.3,0.4,0.4,0.6c0.2,0.3,0.4,0.5,0.7,0.7c0.6,0.6,1.2,0.9,1.8,0.9H220
					c-0.6,0-1.2-0.3-1.8-0.9c-0.3-0.2-0.5-0.4-0.7-0.7c-0.2-0.2-0.3-0.4-0.4-0.6c-0.1-0.2-0.3-0.4-0.4-0.5l0.3-0.1l0.3-0.1
					C217.8,87.7,218.2,87.9,218.4,88.4z"/>
			</g>
		</g>
		<g>
			<g>
				<path fill="#FFFFFF" d="M423.9,19.2c1.9,0,3.3,1,4.1,2.9c1-1.9,2.4-2.9,4-2.9h9.9c-2,1-3.3,2.9-3.9,5.7
					c-0.2,1.1-0.3,2.2-0.3,3.3c0,1.3,0.1,2.6,0.4,4l10,44.1c2.1,7.3,5.1,12.6,9,15.8h-8.1c-1.6,0-2.9-1-4-2.9
					c-0.2,1.9-1.1,2.9-2.7,2.9h-9.5c2.1-1,3.4-2.9,3.9-5.8c0.2-1,0.3-2.1,0.3-3.2c0-1.4-0.2-2.8-0.5-4.2c-0.1-0.4-2.9-13.3-8.5-38.5
					l-5.7,25.8c6.1,2.8,9.6,7.5,10.4,14.1c-3.3-2.9-7.5-4.4-12.6-4.4c-0.3,1.5-0.4,2.5-0.6,2.9c-0.3,1.4-0.5,2.8-0.5,4.2
					c0,1.1,0.1,2.2,0.3,3.2c0.6,2.8,1.9,4.7,3.9,5.8H414c-1.6,0-2.5-1-2.7-2.9c-1.2,1.9-2.5,2.9-4.1,2.9h-8.1
					c3.7-3,6.6-7.8,8.6-14.4l10.1-45.3c0.3-1.5,0.4-2.8,0.4-4.2c0-1.1-0.1-2.1-0.3-3.2c-0.6-2.9-1.9-4.8-3.9-5.8H423.9z"/>
			</g>
			<g>
				<path fill="#FFFFFF" d="M422.4,78.9c-0.3,1.4-0.4,2.7-0.4,4.1c0,0.8,0.1,1.6,0.2,2.4c0.3,2.5,1.2,4.4,2.6,5.7l-0.4-0.2l-0.3-0.2
					c-1.8-0.9-2.8-2.7-3.3-5.3c-0.1-0.7-0.2-1.4-0.2-2.2c0-0.4,0-0.7,0.1-1.2c0-1,0.2-1.9,0.4-2.8c0-0.2,0-0.4,0.1-0.8
					c0.1-0.2,0.1-0.6,0.2-1l1.3,0.1C422.5,78.3,422.4,78.7,422.4,78.9z M428.1,46.7c0.2,0.8,0.4,1.7,0.7,2.8l-3.6,16.5l-1.2-0.7
					L428.1,46.7z M426.3,66.9c5.4,2.9,8.5,7.4,9.2,13.5c-0.4-0.4-0.9-0.7-1.5-1.2C433.2,74,430.6,69.9,426.3,66.9z M450.9,76.3
					c2,7.3,5,12.6,8.9,15.8c-1-0.6-1.6-1-1.9-1.2c-3.7-3-6.6-8-8.5-14.9l-10-44.1c-0.2-0.9-0.4-1.8-0.4-2.8c0-0.4-0.1-0.7-0.1-1
					c0-0.8,0.1-1.6,0.2-2.3c0.4-2.6,1.5-4.4,3.2-5.3l0.3-0.1l0.4-0.1c-1.4,1.3-2.2,3.1-2.6,5.6c-0.1,0.8-0.2,1.6-0.2,2.4
					c0,1.3,0.1,2.7,0.4,4L450.9,76.3z"/>
			</g>
			<g>
				<path fill="#FFFFFF" d="M410.7,77.9l-0.1,0.1c-1.6,5.3-3.7,9.5-6.3,12.5H403c2.6-3,4.7-7.2,6.3-12.5l0.1-0.1l10-45.3
					c0.4-1.7,0.6-3.4,0.6-4.8c0-2.8-0.7-5.2-2-7.2h1.3c1.3,2,2,4.4,2,7.2c0,1.5-0.2,3.1-0.6,4.8L410.7,77.9z M414.3,89l0.1,0.2
					l0.1,0.2c0,0.2,0.1,0.4,0.2,0.5c0.3,0.4,0.6,0.7,1.1,0.7h-1.3c-0.5,0-0.9-0.2-1.1-0.7c-0.1-0.2-0.1-0.3-0.2-0.5l-0.1-0.2
					l-0.1-0.2c0-0.5-0.3-0.8-0.7-1.1c0.2-0.1,0.4-0.2,0.7-0.2l0.3,0.1C413.9,87.9,414.2,88.3,414.3,89z M422,74.5
					c3.1,0,6,0.6,8.8,1.8l0.2,0.4l0.2,0.4c-2.8-1.5-5.9-2.4-9.4-2.5l0.2-0.1H422z M429.6,23.5c-0.2,0-0.4-0.1-0.6-0.2
					c0.2-0.1,0.3-0.3,0.4-0.5c0.1-0.2,0.3-0.4,0.4-0.6c0.2-0.3,0.4-0.5,0.6-0.7c0.6-0.6,1.3-0.9,1.9-0.9h1.3c-0.6,0-1.2,0.3-1.9,0.9
					c-0.2,0.2-0.4,0.4-0.6,0.7c-0.2,0.2-0.3,0.4-0.4,0.6c-0.2,0.4-0.6,0.7-1.1,0.7H429.6z M439.6,78.5c0.4,1.7,0.6,3.4,0.6,4.8
					c0,2.8-0.7,5.2-2,7.2h-1.3c1.3-2,2-4.4,2-7.2c0-1.5-0.2-3.1-0.6-4.8c-0.1-0.2-1.5-6.7-4.3-19.3c-0.4-2-1-4.3-1.6-7
					c-0.2-0.8-0.4-1.9-0.7-3.2l-0.3-1.5l-0.3-1.4c-0.9-4-1.3-6-1.3-6.1c-0.1-0.4-0.3-0.7-0.7-0.9c0.2-0.2,0.4-0.2,0.7-0.2
					c0.7,0,1.2,0.4,1.3,1.2c0,0,0.4,2.1,1.3,6.1l0.3,1.4l0.3,1.5c0.3,1.3,0.5,2.4,0.7,3.2c0.6,2.6,1.1,4.9,1.6,7
					C438.2,71.9,439.6,78.3,439.6,78.5z M447.8,88.4c0.1,0.2,0.3,0.4,0.4,0.6c0.2,0.3,0.4,0.5,0.7,0.7c0.6,0.6,1.2,0.9,1.8,0.9h-1.3
					c-0.6,0-1.2-0.3-1.8-0.9c-0.3-0.2-0.5-0.4-0.7-0.7c-0.2-0.2-0.3-0.4-0.4-0.6c-0.1-0.2-0.3-0.4-0.4-0.5l0.3-0.1l0.3-0.1
					C447.2,87.7,447.6,87.9,447.8,88.4z"/>
			</g>
		</g>
		<g>
			<g>
				<path fill="#FFFFFF" d="M347,56.9c2,3.7,3.1,7.6,3.1,11.8v0.5c-0.1,6.4-2.3,11.8-6.7,16.2c-4.3,4.4-9.4,6.6-15.4,6.6H318
					c-1.9,0-3.2-1-4-2.9c-1.1,1.9-2.4,2.9-4,2.9h-7.6c2-1,3.4-2.9,4.4-5.7c0.7-2.1,1-4.5,1-7.4V32.6c0-2.8-0.3-5.3-1-7.4
					c-0.9-2.8-2.4-4.7-4.4-5.7h7.2c1.9,0,3.2,1,4,2.9c1.1-1.9,2.4-2.9,4-2.9h7.6c4.4,0,8.1,1.7,11.1,5.2c2.9,3.3,4.6,7.4,5,12.2
					c0,0.5,0.1,1,0.1,1.6c0,3.5-0.9,6.8-2.7,9.8C342.2,50.4,345,53.2,347,56.9z M328.6,80.5c3.2,0,5.8-1.3,7.9-3.8
					c1.9-2.2,2.9-4.8,2.9-7.7c0-0.4,0-0.8-0.1-1.2c-0.3-3-1.5-5.5-3.6-7.5c-2.1-2-4.6-3-7.4-3c-1.8,0-3.3,0.5-4.4,1.4
					c0-3.3,0.2-5.7,0.6-7.4c0.7-2.7,2.1-5.3,4.3-8c1.2-1.5,1.8-3.2,1.8-5.1v-0.6c-0.2-1.8-1-3.3-2.3-4.6c-1.4-1.3-2.9-1.9-4.6-1.9
					h-1.1c-0.7,0-1.4,0.3-1.9,0.8c-0.5,0.6-0.8,1.2-0.8,2.1v43.5c0,0.8,0.3,1.5,0.8,2.1c0.5,0.6,1.2,0.9,1.9,0.9H328.6z"/>
			</g>
			<g>
				<path fill="#FFFFFF" d="M322.9,32.6c-0.2,0.4-0.3,0.9-0.3,1.4v43.5c0,0.5,0.1,1,0.3,1.5h-0.3c-0.4,0-0.7-0.2-1-0.5
					c-0.3-0.3-0.4-0.6-0.4-1V34c0-1,0.4-1.4,1.3-1.4H322.9z M349.7,56.9c2,3.7,3.1,7.6,3.1,11.8v0.5c-0.1,4.3-1.2,8.3-3.4,12
					c-2.1,3.5-5,6.3-8.5,8.3c3.2-2.3,5.7-5.1,7.5-8.6c1.9-3.6,2.9-7.5,3-11.6v-0.5c0-4.2-1-8.1-2.9-11.8c-1.9-3.8-4.6-6.9-8-9.1
					c1.5-3,2.2-6.1,2.2-9.5c0-0.5,0-1-0.1-1.6c-0.5-6.8-3.2-12-8.1-15.6c2.7,1.4,4.9,3.5,6.5,6.4c1.7,2.8,2.6,5.9,2.9,9.3
					c0,0.5,0.1,1,0.1,1.6c0,3.5-0.9,6.8-2.7,9.8C344.9,50.4,347.7,53.2,349.7,56.9z"/>
			</g>
			<g>
				<path fill="#FFFFFF" d="M310.8,79c0,2.1-0.2,4-0.5,5.7c-0.5,2.4-1.3,4.4-2.4,5.9h-1.3c1.1-1.5,1.9-3.5,2.4-5.9
					c0.3-1.8,0.5-3.7,0.5-5.7V32.6c0-2.1-0.2-4-0.5-5.7c-0.5-2.4-1.3-4.3-2.4-5.9h1.3c1.1,1.6,1.9,3.5,2.4,5.9
					c0.3,1.8,0.5,3.7,0.5,5.7V79z M315.2,23.8c-0.2,0-0.4-0.1-0.6-0.2c0.2-0.1,0.4-0.3,0.5-0.5c0.1-0.2,0.2-0.4,0.4-0.6
					c0.2-0.3,0.4-0.5,0.7-0.7c0.6-0.6,1.2-0.9,1.8-0.9h1.3c-0.6,0-1.2,0.3-1.8,0.9c-0.2,0.2-0.4,0.4-0.7,0.7
					c-0.1,0.2-0.3,0.4-0.4,0.6C316.2,23.7,315.8,23.9,315.2,23.8L315.2,23.8z M316.9,88.6L316.9,88.6l0.1,0.1c0,0.1,0.1,0.2,0.1,0.2
					c0.1,0.2,0.3,0.5,0.5,0.7c0.6,0.6,1.3,1,2.1,1h-1.3c-0.8,0-1.5-0.3-2.1-1c-0.2-0.2-0.4-0.5-0.5-0.7c0-0.1-0.1-0.2-0.1-0.2
					l-0.1-0.1v-0.1c-0.1-0.3-0.3-0.5-0.6-0.7c0.2-0.1,0.4-0.2,0.7-0.2h0.1C316.3,87.8,316.7,88,316.9,88.6z M325.4,29.7
					c2,0,3.9,0.8,5.5,2.3c1.6,1.6,2.6,3.4,2.7,5.5c0,0.2,0.1,0.5,0.1,0.8c0,2.2-0.7,4.1-2.2,5.9c-2.9,3.6-4.4,7.5-4.5,11.7
					c-0.5,0.1-1,0.3-1.4,0.4c0.1-4.5,1.7-8.5,4.6-12.1c1.5-1.8,2.2-3.7,2.2-5.9c0-0.3,0-0.5-0.1-0.8c-0.2-2.1-1.1-3.9-2.7-5.5
					c-1.6-1.5-3.4-2.3-5.5-2.4H325.4z M328.9,81.9c3.6,0,6.6-1.4,8.9-4.3c2.1-2.5,3.2-5.4,3.2-8.7c0-0.4,0-0.9-0.1-1.4
					c-0.3-3.2-1.6-5.9-3.8-8.1c-2.2-2.2-4.9-3.4-7.9-3.6h0.7c3.2,0,6,1.1,8.4,3.4c2.4,2.3,3.7,5.1,4,8.4c0,0.5,0.1,0.9,0.1,1.4
					c0,3.3-1.1,6.2-3.2,8.7c-2.4,2.9-5.4,4.3-8.9,4.3H328.9z"/>
			</g>
		</g>
		<g>
			<g>
				<path fill="#FFFFFF" d="M360.8,28.7c3.5-6.1,9.1-9.2,16.9-9.2c7.7,0,13.3,3.1,16.9,9.2c3.4,5.9,5.1,15.2,5.1,27.8
					c0,12.1-1.7,21.1-5.1,26.7c-3.5,5.9-9.2,8.8-16.9,8.8c-7.7,0-13.4-2.9-16.9-8.8c-3.4-5.7-5.1-14.6-5.1-26.7
					C355.7,43.9,357.4,34.6,360.8,28.7z M379.3,80.9c0.6-0.1,1.2-0.2,1.7-0.3c1.3-0.4,2.5-1.3,3.4-2.7c2.4-3.6,3.6-10.7,3.6-21.3
					c0-11.3-1.2-18.8-3.6-22.6c-0.9-1.4-2.1-2.3-3.4-2.8c-0.5-0.2-1.1-0.3-1.7-0.3l-0.8-0.1h-1.6l-0.8,0.1c-0.6,0-1.2,0.2-1.7,0.3
					c-1.3,0.5-2.5,1.4-3.4,2.8c-2.4,3.8-3.6,11.3-3.6,22.6c0,10.7,1.2,17.8,3.6,21.3c0.9,1.4,2.1,2.2,3.4,2.7
					c0.5,0.2,1.1,0.3,1.7,0.3H379.3z"/>
			</g>
			<g>
				<path fill="#FFFFFF" d="M374.7,32.4c-3.2,3.1-4.8,11.2-4.8,24.1c0,12,1.6,19.5,4.7,22.6c-4-1.5-6-9-6-22.6
					c0-8.3,0.6-14.5,1.9-18.4C371.5,35,372.9,33.1,374.7,32.4z M390.5,21.9c7.8,4.4,11.7,15.9,11.7,34.6c0,17.7-3.8,28.7-11.4,33.1
					c6.8-5.1,10.2-16.1,10.2-33.1C400.9,38.7,397.5,27.2,390.5,21.9z"/>
			</g>
			<g>
				<path fill="#FFFFFF" d="M358.3,56.5c0,11.8,1.6,20.4,4.8,25.8c3.2,5.4,8.2,8.2,15.3,8.4h-0.6c-7.2,0-12.5-2.7-15.8-8.1
					c-3.3-5.4-4.9-14.1-4.9-26c0-12.5,1.6-21.5,4.9-27.1c3.3-5.6,8.6-8.5,15.8-8.5l0.6,0.1c-7,0.2-12.1,3-15.3,8.6
					C359.9,35.2,358.3,44.2,358.3,56.5z M378.9,29.3c3.7,0,6.4,1.4,8,4.2c2.4,4.1,3.6,11.7,3.6,23c0,10.7-1.2,17.9-3.7,21.8
					c-1.6,2.7-4.3,4-7.9,4l-0.6-0.1c3.4-0.1,5.9-1.5,7.5-4.3c2.3-4,3.4-11.1,3.4-21.4c0-10.9-1.1-18.5-3.3-22.6
					c-1.6-2.9-4.2-4.5-7.6-4.6H378.9z"/>
			</g>
		</g>
		<g>
			<path fill="#FFFFFF" d="M49.2,0"/>
		</g>
	</g>
	<g>
		<g>
			<path fill="#FFFFFF" d="M104.4,116.2l-0.4,4.5c-1.3,0.8-3.7,1.4-6.4,1.4c-5.9,0-10-3.1-10-9.1c0-5.7,4.7-9,10.3-9
				c2.5,0,4.7,0.6,6,1.4l0.4,4.5h-1.9l-0.3-0.7c-0.7-1.6-2.1-3.4-4.4-3.4c-2.8,0-4.6,2.3-4.6,6.9c0,5.2,2,7.7,5,7.7
				c2,0,3.3-1.3,4.2-3.4l0.3-0.7H104.4z"/>
		</g>
		<g>
			<path fill="#FFFFFF" d="M136.9,113c0,5.7-3.9,9-9.8,9c-5.6,0-9.8-3.4-9.8-9.2c0-5.7,3.9-9,9.8-9
				C132.7,103.9,136.9,107.3,136.9,113z M131.4,113.8c0-4.8-1.8-8.2-4.8-8.2c-2.8,0-3.8,2.5-3.8,6.6c0,4.8,1.8,8.2,4.8,8.2
				C130.4,120.3,131.4,117.8,131.4,113.8z"/>
		</g>
		<g>
			<path fill="#FFFFFF" d="M164.9,108.7h-1.6L163,108c-0.7-1.3-1.7-2.2-3.5-2.2h-0.7c-1,0-1.6,0.2-2,0.3v5.8h0.6
				c2.9,0,3.4-0.6,3.5-2l0-0.3h1.2c0,0.6,0,2.3,0,3.3s0,2.7,0,3.3H161l0-0.3c-0.1-1.4-0.6-2-3.5-2h-0.6v1.9c0,4,0.2,4.3,1.9,4.7
				l0.9,0.2v1.3c-0.5,0-4.3,0-5.3,0s-4.4,0-4.9,0v-1.3l0.9-0.2c1.3-0.2,1.5-1,1.5-4.7v-5.4c0-3.7-0.3-4.4-1.5-4.7l-0.9-0.2v-1.3
				c0.6,0,4.3,0,5.3,0s6.9,0,7.4,0h2.2L164.9,108.7z"/>
		</g>
		<g>
			<path fill="#FFFFFF" d="M192.2,108.7h-1.6l-0.4-0.7c-0.7-1.3-1.7-2.2-3.5-2.2h-0.7c-1,0-1.6,0.2-2,0.3v5.8h0.6
				c2.9,0,3.4-0.6,3.5-2l0-0.3h1.2c0,0.6,0,2.3,0,3.3s0,2.7,0,3.3h-1.2l0-0.3c-0.1-1.4-0.6-2-3.5-2h-0.6v1.9c0,4,0.2,4.3,1.9,4.7
				l0.9,0.2v1.3c-0.5,0-4.3,0-5.3,0s-4.4,0-4.9,0v-1.3l0.9-0.2c1.3-0.2,1.5-1,1.5-4.7v-5.4c0-3.7-0.3-4.4-1.5-4.7l-0.9-0.2v-1.3
				c0.6,0,4.3,0,5.3,0s6.9,0,7.4,0h2.2L192.2,108.7z"/>
		</g>
		<g>
			<path fill="#FFFFFF" d="M220.2,117.2l-0.6,4.6h-2.7c-1.5,0-6.5,0-7.5,0s-4.7,0-5.3,0v-1.3l0.9-0.2c1.3-0.2,1.5-1,1.5-4.7v-5.4
				c0-3.7-0.3-4.4-1.5-4.7l-0.9-0.2v-1.3c0.6,0,4.3,0,5.3,0s7.1,0,7.6,0h2.1l0.6,4.6h-1.6l-0.4-0.7c-0.7-1.3-1.7-2.2-3.5-2.2h-0.8
				c-1,0-1.6,0.2-2,0.3v5.5h0.6c2.9,0,3.4-0.6,3.5-2l0-0.3h1.2c0,0.6,0,2.3,0,3.3s0,2.7,0,3.3h-1.2l0-0.3c-0.1-1.4-0.6-2-3.5-2h-0.6
				v3.3c0,2.7,0.4,3.2,2.7,3.2h0.6c1.7,0,2.5-0.7,3.3-2.2l0.4-0.7H220.2z"/>
		</g>
		<g>
			<path fill="#FFFFFF" d="M248.5,117.2l-0.6,4.6h-2.7c-1.5,0-6.5,0-7.5,0s-4.7,0-5.3,0v-1.3l0.9-0.2c1.3-0.2,1.5-1,1.5-4.7v-5.4
				c0-3.7-0.3-4.4-1.5-4.7l-0.9-0.2v-1.3c0.6,0,4.3,0,5.3,0s7.1,0,7.6,0h2.1l0.6,4.6h-1.6L246,108c-0.7-1.3-1.7-2.2-3.5-2.2h-0.8
				c-1,0-1.6,0.2-2,0.3v5.5h0.6c2.9,0,3.4-0.6,3.5-2l0-0.3h1.2c0,0.6,0,2.3,0,3.3s0,2.7,0,3.3h-1.2l0-0.3c-0.1-1.4-0.6-2-3.5-2h-0.6
				v3.3c0,2.7,0.4,3.2,2.7,3.2h0.6c1.7,0,2.5-0.7,3.3-2.2l0.4-0.7H248.5z"/>
		</g>
		<g>
			<path fill="#FFFFFF" d="M294.8,116.2l-0.4,4.5c-1.3,0.8-3.7,1.4-6.4,1.4c-5.9,0-10-3.1-10-9.1c0-5.7,4.7-9,10.3-9
				c2.5,0,4.7,0.6,6,1.4l0.4,4.5h-1.9l-0.3-0.7c-0.7-1.6-2.1-3.4-4.4-3.4c-2.8,0-4.6,2.3-4.6,6.9c0,5.2,2,7.7,5,7.7
				c2,0,3.3-1.3,4.2-3.4l0.3-0.7H294.8z"/>
		</g>
		<g>
			<path fill="#FFFFFF" d="M327.3,113c0,5.7-3.9,9-9.8,9c-5.6,0-9.8-3.4-9.8-9.2c0-5.7,3.9-9,9.8-9
				C323.1,103.9,327.3,107.3,327.3,113z M321.8,113.8c0-4.8-1.8-8.2-4.8-8.2c-2.8,0-3.8,2.5-3.8,6.6c0,4.8,1.8,8.2,4.8,8.2
				C320.7,120.3,321.8,117.8,321.8,113.8z"/>
		</g>
		<g>
			<path fill="#FFFFFF" d="M366,121.8c-0.6,0-3.8,0-4.8,0s-4.4,0-4.9,0v-1.3l0.9-0.2c1.4-0.3,1.7-0.8,1.5-4.7l-0.4-7.1l-5.7,13.3
				h-2.1l-5.6-13.3l-0.4,7.1c-0.2,3.9,0,4.4,1.5,4.7l0.9,0.2v1.3c-0.5,0-2.8,0-3.8,0s-3.1,0-3.6,0v-1.3l0.9-0.2
				c1.3-0.2,1.6-0.9,1.8-4.7l0.3-5.4c0.2-3.8,0-4.4-1.5-4.7l-0.9-0.2v-1.3c0.6,0,1.8,0,2.8,0c0.9,0,4.5,0,5.2,0l4.7,11.5l4.8-11.5
				c0.5,0,3.1,0,3.6,0c1,0,3.7,0,4.3,0v1.3l-0.9,0.2c-1.4,0.3-1.7,0.8-1.5,4.7l0.3,5.4c0.2,3.8,0.5,4.4,1.7,4.7l0.9,0.2V121.8z"/>
		</g>
		<g>
			<path fill="#FFFFFF" d="M394.1,109.2c0,3.5-2.7,5.1-7.4,5.6l-0.2-1c1.8-0.9,2.6-1.9,2.6-4.4c0-2.5-1-3.6-2.5-3.6
				c-0.6,0-0.9,0.1-1.3,0.2v9.8c0,4,0.2,4.3,1.9,4.7l0.9,0.2v1.3c-0.5,0-4.3,0-5.3,0s-4.4,0-4.9,0v-1.3l0.9-0.2
				c1.3-0.2,1.5-1,1.5-4.7v-5.4c0-3.7-0.3-4.4-1.5-4.7l-0.9-0.2v-1.3c0.6,0,4,0,4.9,0s3.5,0,4.7,0
				C391.6,104.1,394.1,105.9,394.1,109.2z"/>
		</g>
		<g>
			<path fill="#FFFFFF" d="M423.2,121.8c-0.5,0-3.5,0-4.4,0s-4.4,0-4.9,0v-1.3l0.6-0.1c1.2-0.2,1.5-0.5,1.5-1.1
				c0-0.4-0.1-0.9-0.5-1.8l-0.5-1.2h-6.1l-0.5,1.2c-0.3,0.8-0.5,1.3-0.5,1.8c0,0.6,0.3,0.9,1.5,1.1l0.6,0.1v1.3c-0.5,0-2.5,0-3.5,0
				c-1,0-3,0-3.5,0v-1.3l0.5-0.1c1.3-0.3,1.9-1.2,2.7-3.2l4.6-11.9l3-1.6h1.2l5.2,13.5c0.8,2,1.4,2.9,2.7,3.2l0.5,0.1V121.8z
				 M414.4,114.6l-2.4-6.6l-2.5,6.6H414.4z"/>
		</g>
		<g>
			<path fill="#FFFFFF" d="M455.3,105.4l-0.9,0.2c-1.3,0.3-1.5,1-1.5,4.7v11.4l-2.3,0.4l-10.5-12.2v5.9c0,3.9,0.2,4.4,1.7,4.7
				l0.9,0.2v1.3c-0.5,0-2.8,0-3.8,0s-3.1,0-3.7,0v-1.3l0.9-0.2c1.3-0.2,1.5-1,1.5-4.7v-6.2c0-2.8-0.6-3.6-2.2-3.9l-0.7-0.2v-1.3
				c0.6,0,2.2,0,3.1,0c0.8,0,2.7,0,3.4-0.1l9.2,10.7v-4.5c0-3.9-0.2-4.4-1.7-4.7l-0.9-0.2v-1.3c0.5,0,2.8,0,3.8,0s3.1,0,3.7,0V105.4
				z"/>
		</g>
		<g>
			<path fill="#FFFFFF" d="M487.5,105.4l-0.7,0.2c-1.3,0.3-2.2,1.1-3.3,2.9l-3.8,6.2v1.1c0,4,0.2,4.3,1.9,4.7l0.9,0.2v1.3
				c-0.5,0-4.4,0-5.3,0c-1,0-4.8,0-5.3,0v-1.3l0.9-0.2c1.7-0.3,1.9-0.7,1.9-4.7v-0.8l-4.7-7.2c-0.9-1.4-1.7-1.9-2.8-2.2l-0.7-0.2
				v-1.3c0.5,0,2.5,0,3.5,0s6.1,0,6.6,0v1.2l-0.8,0.1c-0.7,0.1-1.1,0.4-1.1,0.9c0,0.4,0.2,0.8,0.8,1.7l2.8,4.6l2.6-4.5
				c0.4-0.7,0.6-1.1,0.6-1.5c0-0.6-0.3-0.9-0.9-1l-1-0.2v-1.3c0.5,0,3.1,0,4,0s3,0,3.5,0V105.4z"/>
		</g>
	</g>
</g>
<g>
</g>
<g>
</g>
<g>
</g>
<g>
</g>
<g>
</g>
<g>
</g>
</svg>
